<svg width="250" height="250" viewBox="0 0 250 250" fill="none" xmlns="http://www.w3.org/2000/svg"><path d="M39.582 22.864l12.708.105m6.929.573l12.5 2.135m7.293 1.198l12.291 3.229m7.967 2.604l11.822 4.532m6.408 2.812l11.146 6.042m6.405 3.75l10.625 6.927m5.781 4.583l9.844 8.021m5.625 5.209l8.385 9.53m4.74 5.209l7.396 10.312m4.166 5.938l6.198 11.042m3.49 6.614l5.208 11.563m2.659 7.083l3.854 12.031m1.666 6.98l2.447 12.447m.885 7.292l.989 12.656m.053 8.75v12.657" stroke="#F8D90F" stroke-width="5" stroke-miterlimit="10" stroke-linecap="round" stroke-linejoin="round"/><path d="M237.605 227.448c0-10.528-8.534-19.063-19.062-19.063s-19.063 8.535-19.063 19.063c0 10.528 8.535 19.062 19.063 19.062 10.528 0 19.062-8.534 19.062-19.062z" fill="#FFC107" stroke="#FFC107" stroke-width="5" stroke-miterlimit="10" stroke-linecap="round" stroke-linejoin="round"/></svg>