<svg width="250" height="250" viewBox="0 0 250 250" fill="none" xmlns="http://www.w3.org/2000/svg"><g clip-path="url(#clip0)" stroke-width="5" stroke-miterlimit="10" stroke-linecap="round" stroke-linejoin="round"><path d="M22.864 210.417l.105-12.708m.571-6.928l2.136-12.5m1.2-7.291l3.23-12.292m2.601-7.969l4.531-11.823m2.814-6.406l6.042-11.146m3.749-6.406l6.926-10.625m4.585-5.781l8.021-9.844m5.207-5.625l9.531-8.385m5.211-4.741l10.313-7.396m5.935-4.166l11.041-6.198m6.618-3.489l11.562-5.209m7.082-2.655l12.031-3.855m6.978-1.666l12.448-2.449m7.293-.885l12.656-.99m8.75-.052h12.657" stroke="#F8D90F"/><path d="M21.063 204C10.534 204 2 212.535 2 223.063c0 10.527 8.535 19.062 19.063 19.062 10.527 0 19.062-8.535 19.062-19.062 0-10.528-8.535-19.063-19.063-19.063z" fill="#FFC107" stroke="#FFC107"/></g><defs><clipPath id="clip0"><path fill="#fff" transform="rotate(-180 125 125)" d="M0 0h250v250H0z"/></clipPath></defs></svg>