<svg width="16" height="16" viewBox="0 0 16 16" fill="none" xmlns="http://www.w3.org/2000/svg"><path d="M15.992 8.15c0-.656-.054-1.134-.172-1.63H8.16v2.958h4.496c-.09.736-.58 1.843-1.668 2.587l-.015.1 2.422 1.833.168.016c1.54-1.39 2.43-3.437 2.43-5.864z" fill="#4285F4"/><path d="M8.16 15.945c2.202 0 4.051-.709 5.402-1.931l-2.574-1.949c-.69.47-1.614.797-2.829.797A4.901 4.901 0 013.52 9.55l-.097.008-2.518 1.905-.033.09c1.342 2.604 4.097 4.393 7.288 4.393z" fill="#34A853"/><path d="M3.517 9.55a4.807 4.807 0 01-.272-1.577c0-.55.1-1.081.263-1.577l-.004-.106-2.55-1.935-.084.039A7.832 7.832 0 000 7.973a7.83 7.83 0 00.87 3.578L3.517 9.55z" fill="#FBBC05"/><path d="M8.16 3.083c1.531 0 2.565.646 3.154 1.187l2.303-2.197C12.201.788 10.361 0 8.159 0 4.97 0 2.213 1.79.871 4.394L3.51 6.396a4.922 4.922 0 014.65-3.313z" fill="#EB4335"/></svg>