<svg width="469" height="415" viewBox="0 0 469 415" fill="none" xmlns="http://www.w3.org/2000/svg"><path opacity=".15" d="M200.728.007l4.768 14.942c25.022 78.133 72.652 137.775 119.3 180.566 14.626 13.417 48.122 39.16 50.662 40.979a588.43 588.43 0 0093.488 54.521l.054.19s-36.061 24.785-36.692 25.679c-24.086-11.562-45.349-19.611-80.621-44.7-40.714-28.958-76.319-61.612-105.736-97.187-33.514-40.549-59.128-85.145-76.186-131.9H59.541C70.048 70.14 89.022 114.428 117.22 162.49c41.973 71.541 113.363 165.976 215.178 209.736l38.353 16.47S332.15 411.989 327.626 415c-32.15-8.275-119.278-68.896-152.71-103.703-34.22-35.625-66.066-78.417-94.658-127.15C31.785 101.514 9.564 30.824 8.642 27.849L0 0l200.728.007z" fill="url(#paint0_linear)"/><defs><linearGradient id="paint0_linear" x1="373.696" y1="24.363" x2="182.799" y2="364.844" gradientUnits="userSpaceOnUse"><stop stop-color="#45A247" stop-opacity=".81"/><stop offset="1" stop-color="#283C86" stop-opacity=".78"/></linearGradient></defs></svg>