<svg width="318" height="286" viewBox="0 0 318 286" fill="none" xmlns="http://www.w3.org/2000/svg"><path opacity=".1" d="M105.9 286c-40.117 0-75.39-9.511-107.848-29.099-32.52-19.626-57.275-45.668-75.683-79.583C-96.04 143.453-105 106.416-105 64.101c0-43.078 8.951-80.503 27.376-114.419 18.4-33.898 43.13-59.925 75.612-79.547C30.562-149.489 65.846-159 105.9-159c40.809 0 76.25 9.492 108.372 29.045 32.212 19.714 56.957 45.74 75.736 79.62C308.841-16.383 318 21.045 318 64.101c0 42.278-9.156 79.318-27.979 113.27s-43.552 59.926-75.647 79.53C182.28 276.506 146.805 286 105.9 286zm0-354.652c-23.373 0-42.74 5.111-60.958 16.076C26.42-41.398 12.802-26.99 2.133-7.324l-.017.017C-8.953 13.057-14.336 36.42-14.336 64.109c0 26.89 5.373 49.866 16.435 70.193 10.695 19.714 24.33 34.093 42.914 45.316 18.132 10.952 37.478 16.041 60.887 16.041 24.031 0 43.447-5.011 61.1-15.793 18.613-11.364 32.483-26.042 43.652-46.199 11.218-20.22 16.671-42.967 16.671-69.558 0-27.371-5.453-50.522-16.671-70.744-11.157-20.135-25.058-34.833-43.718-46.243-17.631-10.745-37.057-15.778-61.034-15.778v.004z" fill="url(#paint0_linear)"/><defs><linearGradient id="paint0_linear" x1="-19.043" y1="-132.876" x2="202.419" y2="199.363" gradientUnits="userSpaceOnUse"><stop stop-color="#45A247" stop-opacity=".81"/><stop offset="1" stop-color="#283C86" stop-opacity=".78"/></linearGradient></defs></svg>