<svg width="387" height="345" viewBox="0 0 387 345" fill="none" xmlns="http://www.w3.org/2000/svg"><path opacity=".15" d="M159.728 379.993l4.768-14.942c25.022-78.133 72.652-137.775 119.3-180.566 14.626-13.417 48.122-39.16 50.662-40.979a588.454 588.454 0 0193.488-54.521l.054-.19s-36.061-24.785-36.692-25.679c-24.086 11.562-45.349 19.61-80.621 44.7-40.714 28.958-76.319 61.612-105.736 97.187-33.514 40.549-59.128 85.145-76.186 131.901H18.541c10.507-27.045 29.481-71.333 57.678-119.395 41.975-71.541 113.365-165.976 215.18-209.736l38.353-16.47S291.15-31.99 286.626-35c-32.15 8.275-119.278 68.896-152.71 103.703-34.22 35.625-66.066 78.417-94.658 127.15-48.473 82.633-70.694 153.323-71.616 156.298L-41 380l200.728-.007z" fill="url(#paint0_linear)"/><defs><linearGradient id="paint0_linear" x1="332.696" y1="355.637" x2="141.799" y2="15.156" gradientUnits="userSpaceOnUse"><stop stop-color="#45A247" stop-opacity=".81"/><stop offset="1" stop-color="#283C86" stop-opacity=".78"/></linearGradient></defs></svg>