<svg width="16" height="16" viewBox="0 0 16 16" fill="none" xmlns="http://www.w3.org/2000/svg"><path d="M4.057 15.943c-.951-.043-1.468-.201-1.812-.335a3.033 3.033 0 01-1.122-.73 3.01 3.01 0 01-.73-1.122c-.134-.344-.293-.86-.336-1.812C.01 10.915 0 10.607 0 8s.01-2.914.057-3.944C.1 3.106.259 2.59.392 2.245c.178-.456.39-.78.73-1.123a3.013 3.013 0 011.122-.73C2.588.258 3.105.1 4.057.057 5.086.01 5.395 0 8 0c2.606 0 2.914.01 3.943.057.952.043 1.468.202 1.813.335.455.177.78.389 1.122.73.342.342.552.667.73 1.122.134.344.292.861.335 1.813C15.991 5.087 16 5.394 16 8c0 2.605-.01 2.914-.057 3.944-.043.951-.202 1.468-.335 1.812a3.05 3.05 0 01-.73 1.122 3.03 3.03 0 01-1.123.73c-.343.134-.86.292-1.812.335C10.915 15.991 10.606 16 8 16c-2.605 0-2.914-.009-3.943-.057z" fill="url(#paint0_radial)"/><path d="M4.057 15.943c-.951-.043-1.468-.201-1.812-.335a3.033 3.033 0 01-1.122-.73 3.01 3.01 0 01-.73-1.122c-.134-.344-.293-.86-.336-1.812C.01 10.915 0 10.607 0 8s.01-2.914.057-3.944C.1 3.106.259 2.59.392 2.245c.178-.456.39-.78.73-1.123a3.013 3.013 0 011.122-.73C2.588.258 3.105.1 4.057.057 5.086.01 5.395 0 8 0c2.606 0 2.914.01 3.943.057.952.043 1.468.202 1.813.335.455.177.78.389 1.122.73.342.342.552.667.73 1.122.134.344.292.861.335 1.813C15.991 5.087 16 5.394 16 8c0 2.605-.01 2.914-.057 3.944-.043.951-.202 1.468-.335 1.812a3.05 3.05 0 01-.73 1.122 3.03 3.03 0 01-1.123.73c-.343.134-.86.292-1.812.335C10.915 15.991 10.606 16 8 16c-2.605 0-2.914-.009-3.943-.057z" fill="url(#paint1_radial)"/><path d="M6.033 8.034a1.981 1.981 0 113.963 0 1.981 1.981 0 01-3.963 0zm-1.07 0a3.052 3.052 0 106.103 0 3.052 3.052 0 00-6.104 0zm5.511-3.173a.713.713 0 10.714-.713.713.713 0 00-.714.713zm-4.861 8.011c-.58-.026-.895-.123-1.104-.204a1.848 1.848 0 01-.684-.445 1.834 1.834 0 01-.444-.683c-.082-.21-.178-.524-.205-1.104-.028-.626-.034-.815-.034-2.402 0-1.587.006-1.775.034-2.402.027-.58.124-.894.205-1.104.108-.277.237-.475.444-.684.208-.208.406-.337.684-.444.21-.082.524-.178 1.104-.205.627-.028.815-.034 2.401-.034 1.587 0 1.775.006 2.402.034.58.027.894.124 1.104.205.278.107.476.237.684.445.208.207.337.406.445.683.081.21.178.525.204 1.104.029.627.035.815.035 2.402 0 1.588-.006 1.775-.035 2.402-.026.58-.123.895-.204 1.104a1.841 1.841 0 01-.445.683 1.847 1.847 0 01-.684.445c-.209.082-.524.178-1.104.204-.626.03-.814.035-2.402.035-1.587 0-1.775-.006-2.401-.035zm-.05-10.746c-.632.029-1.064.13-1.442.276-.39.152-.722.355-1.053.686a2.91 2.91 0 00-.686 1.053c-.147.377-.247.81-.276 1.442-.029.634-.036.837-.036 2.451s.007 1.817.036 2.45c.03.633.13 1.066.276 1.443.152.391.355.723.686 1.053.33.33.662.534 1.053.686.378.147.81.247 1.443.276.634.029.836.036 2.45.036 1.615 0 1.817-.007 2.451-.036.633-.029 1.065-.13 1.443-.276.39-.152.722-.355 1.053-.686.33-.33.533-.662.685-1.053.147-.377.248-.81.276-1.442.03-.635.036-.837.036-2.451s-.007-1.817-.036-2.45c-.028-.633-.129-1.066-.276-1.443a2.922 2.922 0 00-.685-1.053 2.908 2.908 0 00-1.053-.686c-.378-.147-.81-.248-1.442-.276-.634-.029-.837-.036-2.45-.036-1.615 0-1.818.007-2.452.036" fill="#fff"/><defs><radialGradient id="paint0_radial" cx="0" cy="0" r="1" gradientUnits="userSpaceOnUse" gradientTransform="translate(1.036 15.65) scale(20.3141)"><stop offset=".09" stop-color="#FA8F21"/><stop offset=".78" stop-color="#D82D7E"/></radialGradient><radialGradient id="paint1_radial" cx="0" cy="0" r="1" gradientUnits="userSpaceOnUse" gradientTransform="translate(11.083 15.136) scale(17.8766)"><stop offset=".64" stop-color="#8C3AAA" stop-opacity="0"/><stop offset="1" stop-color="#8C3AAA"/></radialGradient></defs></svg>