<svg width="16" height="16" viewBox="0 0 16 16" fill="none" xmlns="http://www.w3.org/2000/svg"><path d="M0 1.174C0 .544.53.032 1.183.032h13.635C15.47.032 16 .543 16 1.174v13.653c0 .63-.53 1.141-1.182 1.141H1.182C.53 15.968 0 15.457 0 14.827V1.173z" fill="#069"/><path d="M4.86 13.368V6.194H2.465v7.174H4.86zM3.663 5.215c.835 0 1.354-.551 1.354-1.24-.015-.704-.52-1.24-1.338-1.24-.82 0-1.355.536-1.355 1.24 0 .689.52 1.24 1.323 1.24h.016zm2.522 8.153h2.394V9.362c0-.214.016-.429.079-.582.173-.428.567-.872 1.228-.872.866 0 1.213.658 1.213 1.623v3.837h2.394V9.255c0-2.204-1.18-3.23-2.756-3.23-1.292 0-1.859.72-2.174 1.21h.016v-1.04H6.185c.031.672 0 7.174 0 7.174z" fill="#fff"/></svg>