<svg width="40" height="40" viewBox="0 0 40 40" fill="none" xmlns="http://www.w3.org/2000/svg"><path d="M20 39.928c11.046 0 20-8.938 20-19.964C40 8.938 31.046 0 20 0S0 8.938 0 19.964C0 30.99 8.954 39.928 20 39.928z" fill="#fff"/><path d="M11.606 16.422h4.108v13.361h-4.108V16.422zm2.056-6.639c.471 0 .931.141 1.323.406.392.265.697.64.877 1.08a2.433 2.433 0 01-.516 2.625 2.356 2.356 0 01-2.595.522 2.386 2.386 0 01-1.069-.887 2.428 2.428 0 01.297-3.04 2.368 2.368 0 011.683-.706zm4.288 6.989h4.091v1.78h.078a4.384 4.384 0 011.714-1.579 4.694 4.694 0 012.327-.52c4.33 0 5.123 2.693 5.123 6.194v7.136h-4.27v-6.325c0-1.508-.026-3.451-2.217-3.451-2.192 0-2.564 1.64-2.564 3.34v6.436h-4.265l-.018-13.01z" fill="#47404F"/></svg>