<svg width="106" height="108" viewBox="0 0 106 108" fill="none" xmlns="http://www.w3.org/2000/svg"><ellipse cx="53" cy="54" rx="53" ry="54" fill="#53639E"/><path d="M63.415 45.667h-2.083v-3.938a8.333 8.333 0 10-16.667 0v3.938h-2.083a6.25 6.25 0 00-6.25 6.25v16.666a6.25 6.25 0 006.25 6.25h20.833a6.25 6.25 0 006.25-6.25V51.917a6.25 6.25 0 00-6.25-6.25zm-14.583-3.938a4.292 4.292 0 014.167-4.396 4.292 4.292 0 014.166 4.396v3.938h-8.333v-3.938zm16.667 26.854a2.083 2.083 0 01-2.084 2.084H42.582a2.083 2.083 0 01-2.083-2.084V51.917a2.083 2.083 0 012.083-2.084h20.833a2.083 2.083 0 012.084 2.084v16.666z" fill="#FFC107"/><path d="M53 54a6.25 6.25 0 100 12.5A6.25 6.25 0 0053 54zm0 8.333a2.083 2.083 0 110-4.167 2.083 2.083 0 010 4.167z" fill="#FFC107"/></svg>