<svg width="90" height="63" viewBox="0 0 90 63" fill="none" xmlns="http://www.w3.org/2000/svg"><path d="M43.834 22.91c-.002-6.077-2.306-11.905-6.406-16.202C33.328 2.412 27.77-.002 21.974 0 9.903 0 1.14 9.907.12 22.527-1.438 41.762 12.505 57.874 29.432 63a22.37 22.37 0 01-7.205-7.406 23.65 23.65 0 01-3.262-10.012c.996.157 2.001.24 3.008.25a20.98 20.98 0 008.367-1.742 21.818 21.818 0 007.093-4.969 23.02 23.02 0 004.738-7.437 23.886 23.886 0 001.663-8.773zm46.166 0c-.002-6.076-2.305-11.904-6.404-16.2C79.497 2.413 73.939 0 68.143 0 56.073 0 47.31 9.907 46.287 22.527 44.727 41.762 58.67 57.874 75.604 63a22.37 22.37 0 01-7.206-7.406 23.65 23.65 0 01-3.261-10.012c.997.157 2.004.241 3.012.25 2.87 0 5.712-.593 8.364-1.745a21.815 21.815 0 007.09-4.97 23.02 23.02 0 004.735-7.436A23.883 23.883 0 0090 22.911z" fill="#45A247"/></svg>