<svg width="250" height="250" viewBox="0 0 250 250" fill="none" xmlns="http://www.w3.org/2000/svg">
<path d="M39.582 22.8645L52.2904 22.9688" stroke="#F8D90F" stroke-width="5" stroke-miterlimit="10" stroke-linecap="round" stroke-linejoin="round"/>
<path d="M59.2188 23.5418L71.7187 25.6772" stroke="#F8D90F" stroke-width="5" stroke-miterlimit="10" stroke-linecap="round" stroke-linejoin="round"/>
<path d="M79.0117 26.8748L91.3034 30.104" stroke="#F8D90F" stroke-width="5" stroke-miterlimit="10" stroke-linecap="round" stroke-linejoin="round"/>
<path d="M99.2695 32.7084L111.092 37.2397" stroke="#F8D90F" stroke-width="5" stroke-miterlimit="10" stroke-linecap="round" stroke-linejoin="round"/>
<path d="M117.5 40.0522L128.646 46.0938" stroke="#F8D90F" stroke-width="5" stroke-miterlimit="10" stroke-linecap="round" stroke-linejoin="round"/>
<path d="M135.051 49.8439L145.676 56.771" stroke="#F8D90F" stroke-width="5" stroke-miterlimit="10" stroke-linecap="round" stroke-linejoin="round"/>
<path d="M151.457 61.3542L161.301 69.375" stroke="#F8D90F" stroke-width="5" stroke-miterlimit="10" stroke-linecap="round" stroke-linejoin="round"/>
<path d="M166.926 74.5835L175.311 84.1147" stroke="#F8D90F" stroke-width="5" stroke-miterlimit="10" stroke-linecap="round" stroke-linejoin="round"/>
<path d="M180.051 89.3227L187.447 99.6353" stroke="#F8D90F" stroke-width="5" stroke-miterlimit="10" stroke-linecap="round" stroke-linejoin="round"/>
<path d="M191.613 105.573L197.811 116.615" stroke="#F8D90F" stroke-width="5" stroke-miterlimit="10" stroke-linecap="round" stroke-linejoin="round"/>
<path d="M201.301 123.229L206.509 134.792" stroke="#F8D90F" stroke-width="5" stroke-miterlimit="10" stroke-linecap="round" stroke-linejoin="round"/>
<path d="M209.168 141.875L213.022 153.906" stroke="#F8D90F" stroke-width="5" stroke-miterlimit="10" stroke-linecap="round" stroke-linejoin="round"/>
<path d="M214.688 160.886L217.135 173.333" stroke="#F8D90F" stroke-width="5" stroke-miterlimit="10" stroke-linecap="round" stroke-linejoin="round"/>
<path d="M218.02 180.625L219.009 193.281" stroke="#F8D90F" stroke-width="5" stroke-miterlimit="10" stroke-linecap="round" stroke-linejoin="round"/>
<path d="M219.062 202.031V214.688" stroke="#F8D90F" stroke-width="5" stroke-miterlimit="10" stroke-linecap="round" stroke-linejoin="round"/>
<path d="M237.605 227.448C237.605 216.92 229.071 208.385 218.543 208.385C208.015 208.385 199.48 216.92 199.48 227.448C199.48 237.976 208.015 246.51 218.543 246.51C229.071 246.51 237.605 237.976 237.605 227.448Z" fill="#FFC107" stroke="#FFC107" stroke-width="5" stroke-miterlimit="10" stroke-linecap="round" stroke-linejoin="round"/>
</svg>
