<svg width="250" height="250" viewBox="0 0 250 250" fill="none" xmlns="http://www.w3.org/2000/svg">
<g clip-path="url(#clip0)">
<path d="M22.8645 210.417L22.9688 197.709" stroke="#F8D90F" stroke-width="5" stroke-miterlimit="10" stroke-linecap="round" stroke-linejoin="round"/>
<path d="M23.5403 190.781L25.6758 178.281" stroke="#F8D90F" stroke-width="5" stroke-miterlimit="10" stroke-linecap="round" stroke-linejoin="round"/>
<path d="M26.8763 170.99L30.1055 158.698" stroke="#F8D90F" stroke-width="5" stroke-miterlimit="10" stroke-linecap="round" stroke-linejoin="round"/>
<path d="M32.707 150.729L37.2383 138.906" stroke="#F8D90F" stroke-width="5" stroke-miterlimit="10" stroke-linecap="round" stroke-linejoin="round"/>
<path d="M40.0522 132.5L46.0938 121.354" stroke="#F8D90F" stroke-width="5" stroke-miterlimit="10" stroke-linecap="round" stroke-linejoin="round"/>
<path d="M49.8425 114.948L56.7695 104.323" stroke="#F8D90F" stroke-width="5" stroke-miterlimit="10" stroke-linecap="round" stroke-linejoin="round"/>
<path d="M61.3542 98.542L69.375 88.6983" stroke="#F8D90F" stroke-width="5" stroke-miterlimit="10" stroke-linecap="round" stroke-linejoin="round"/>
<path d="M74.582 83.0732L84.1133 74.6878" stroke="#F8D90F" stroke-width="5" stroke-miterlimit="10" stroke-linecap="round" stroke-linejoin="round"/>
<path d="M89.3242 69.9473L99.6367 62.5515" stroke="#F8D90F" stroke-width="5" stroke-miterlimit="10" stroke-linecap="round" stroke-linejoin="round"/>
<path d="M105.572 58.3853L116.613 52.1874" stroke="#F8D90F" stroke-width="5" stroke-miterlimit="10" stroke-linecap="round" stroke-linejoin="round"/>
<path d="M123.231 48.6978L134.793 43.4894" stroke="#F8D90F" stroke-width="5" stroke-miterlimit="10" stroke-linecap="round" stroke-linejoin="round"/>
<path d="M141.875 40.8335L153.906 36.9793" stroke="#F8D90F" stroke-width="5" stroke-miterlimit="10" stroke-linecap="round" stroke-linejoin="round"/>
<path d="M160.884 35.3125L173.332 32.8645" stroke="#F8D90F" stroke-width="5" stroke-miterlimit="10" stroke-linecap="round" stroke-linejoin="round"/>
<path d="M180.625 31.979L193.281 30.9894" stroke="#F8D90F" stroke-width="5" stroke-miterlimit="10" stroke-linecap="round" stroke-linejoin="round"/>
<path d="M202.031 30.937H214.688" stroke="#F8D90F" stroke-width="5" stroke-miterlimit="10" stroke-linecap="round" stroke-linejoin="round"/>
<path d="M21.0625 204C10.5346 204 1.99999 212.535 1.99999 223.063C1.99999 233.59 10.5346 242.125 21.0625 242.125C31.5904 242.125 40.125 233.59 40.125 223.063C40.125 212.535 31.5904 204 21.0625 204Z" fill="#FFC107" stroke="#FFC107" stroke-width="5" stroke-miterlimit="10" stroke-linecap="round" stroke-linejoin="round"/>
</g>
<defs>
<clipPath id="clip0">
<rect width="250" height="250" fill="white" transform="translate(250 250) rotate(-180)"/>
</clipPath>
</defs>
</svg>
