<svg width="469" height="415" viewBox="0 0 469 415" fill="none" xmlns="http://www.w3.org/2000/svg">
<path opacity="0.15" d="M200.728 0.00717276L205.496 14.9491C230.518 93.0818 278.148 152.724 324.796 195.515C339.422 208.932 372.918 234.675 375.458 236.494C404.88 257.501 436.175 275.752 468.946 291.015L469 291.205C469 291.205 432.939 315.99 432.308 316.884C408.222 305.322 386.959 297.273 351.687 272.184C310.973 243.226 275.368 210.572 245.951 174.997C212.437 134.448 186.823 89.8523 169.765 43.0961H59.5407C70.0483 70.1415 89.0223 114.429 117.22 162.491C159.193 234.032 230.583 328.467 332.398 372.227L370.751 388.697C370.751 388.697 332.15 411.989 327.626 415C295.476 406.725 208.348 346.104 174.916 311.297C140.696 275.672 108.85 232.88 80.2581 184.147C31.7847 101.514 9.56412 30.8239 8.64215 27.8492L-1.68955e-05 0L200.728 0.00717276Z" fill="url(#paint0_linear)"/>
<defs>
<linearGradient id="paint0_linear" x1="373.696" y1="24.3627" x2="182.799" y2="364.844" gradientUnits="userSpaceOnUse">
<stop stop-color="#45A247" stop-opacity="0.81"/>
<stop offset="1" stop-color="#283C86" stop-opacity="0.78"/>
</linearGradient>
</defs>
</svg>
