<svg width="318" height="286" viewBox="0 0 318 286" fill="none" xmlns="http://www.w3.org/2000/svg">
<path opacity="0.1" d="M105.9 286C65.7826 286 30.5104 276.489 -1.94817 256.901C-34.4678 237.275 -59.2233 211.233 -77.6312 177.318C-96.0391 143.453 -105 106.416 -105 64.1012C-105 21.0225 -96.0488 -16.4024 -77.6239 -50.3177C-59.2233 -84.216 -34.4947 -110.243 -2.01167 -129.865C30.5617 -149.489 65.8461 -159 105.9 -159C146.709 -159 182.15 -149.508 214.272 -129.955C246.484 -110.241 271.229 -84.2159 290.008 -50.3347C308.841 -16.3829 318 21.0444 318 64.1012C318 106.379 308.844 143.419 290.021 177.371C271.198 211.323 246.469 237.297 214.374 256.901C182.28 276.506 146.805 286 105.9 286ZM105.9 -68.6517C82.5273 -68.6517 63.1596 -63.5406 44.9422 -52.5763C26.4195 -41.3977 12.8011 -26.9895 2.13297 -7.3242L2.11588 -7.30716C-8.95277 13.0566 -14.3357 36.4213 -14.3357 64.1085C-14.3357 90.9998 -8.96255 113.975 2.09878 134.302C12.7938 154.016 26.4293 168.395 45.013 179.618C63.1449 190.57 82.4906 195.659 105.9 195.659C129.931 195.659 149.347 190.648 167 179.866C185.613 168.502 199.483 153.824 210.652 133.667C221.87 113.447 227.323 90.7004 227.323 64.1085C227.323 36.7377 221.87 13.5872 210.652 -6.63542C199.495 -26.7704 185.594 -41.4683 166.934 -52.8781C149.303 -63.6234 129.877 -68.6565 105.9 -68.6565V-68.6517Z" fill="url(#paint0_linear)"/>
<defs>
<linearGradient id="paint0_linear" x1="-19.0434" y1="-132.876" x2="202.419" y2="199.363" gradientUnits="userSpaceOnUse">
<stop stop-color="#45A247" stop-opacity="0.81"/>
<stop offset="1" stop-color="#283C86" stop-opacity="0.78"/>
</linearGradient>
</defs>
</svg>
