<svg width="387" height="345" viewBox="0 0 387 345" fill="none" xmlns="http://www.w3.org/2000/svg">
<path opacity="0.15" d="M159.728 379.993L164.496 365.051C189.518 286.918 237.148 227.276 283.796 184.485C298.422 171.068 331.918 145.325 334.458 143.506C363.88 122.499 395.175 104.248 427.946 88.9847L428 88.7945C428 88.7945 391.939 64.0098 391.308 63.1163C367.222 74.678 345.959 82.7266 310.687 107.816C269.973 136.774 234.368 169.428 204.951 205.003C171.437 245.552 145.823 290.148 128.765 336.904H18.5406C29.0483 309.859 48.0223 265.571 76.2195 217.509C118.193 145.968 189.583 51.5331 291.398 7.77316L329.751 -8.69739C329.751 -8.69739 291.15 -31.9894 286.626 -35C254.476 -26.7253 167.348 33.8963 133.916 68.7033C99.6957 104.328 67.85 147.12 39.2581 195.853C-9.21533 278.486 -31.4359 349.176 -32.3578 352.151L-41 380L159.728 379.993Z" fill="url(#paint0_linear)"/>
<defs>
<linearGradient id="paint0_linear" x1="332.696" y1="355.637" x2="141.799" y2="15.1564" gradientUnits="userSpaceOnUse">
<stop stop-color="#45A247" stop-opacity="0.81"/>
<stop offset="1" stop-color="#283C86" stop-opacity="0.78"/>
</linearGradient>
</defs>
</svg>
