<svg width="16" height="16" viewBox="0 0 16 16" fill="none" xmlns="http://www.w3.org/2000/svg">
<path d="M4.05718 15.9434C3.10566 15.9001 2.58876 15.7418 2.24496 15.6077C1.7894 15.4303 1.46462 15.2192 1.12272 14.8778C0.780813 14.5363 0.569204 14.2115 0.392784 13.756C0.258686 13.4122 0.100336 12.8953 0.057063 11.9438C0.00951051 10.9152 0 10.6066 0 8.00071C0 5.39483 0.0104616 5.08669 0.0565875 4.05718C0.0998603 3.10566 0.259161 2.58971 0.392308 2.24496C0.569679 1.7894 0.781288 1.46462 1.12224 1.12224C1.46367 0.780813 1.78845 0.568728 2.24448 0.392308C2.58828 0.25821 3.10518 0.0998603 4.05671 0.0565875C5.08574 0.00951051 5.39483 0 7.99976 0C10.6056 0 10.9138 0.0104616 11.9433 0.0565875C12.8948 0.0998603 13.4108 0.259161 13.7555 0.392308C14.2111 0.568728 14.5359 0.780813 14.8778 1.12224C15.2197 1.46367 15.4303 1.78893 15.6077 2.24448C15.7418 2.58828 15.9001 3.10518 15.9434 4.05671C15.9905 5.08622 16 5.39436 16 8.00024C16 10.6052 15.9905 10.9143 15.9434 11.9438C15.9001 12.8953 15.7408 13.4122 15.6077 13.756C15.4303 14.2115 15.2192 14.5363 14.8778 14.8778C14.5363 15.2192 14.2111 15.4303 13.7555 15.6077C13.4117 15.7418 12.8948 15.9001 11.9433 15.9434C10.9147 15.9905 10.6056 16 7.99976 16C5.39483 16 5.08574 15.991 4.05718 15.9434Z" fill="url(#paint0_radial)"/>
<path d="M4.05718 15.9434C3.10566 15.9001 2.58876 15.7418 2.24496 15.6077C1.7894 15.4303 1.46462 15.2192 1.12272 14.8778C0.780813 14.5363 0.569204 14.2115 0.392784 13.756C0.258686 13.4122 0.100336 12.8953 0.057063 11.9438C0.00951051 10.9152 0 10.6066 0 8.00071C0 5.39483 0.0104616 5.08669 0.0565875 4.05718C0.0998603 3.10566 0.259161 2.58971 0.392308 2.24496C0.569679 1.7894 0.781288 1.46462 1.12224 1.12224C1.46367 0.780813 1.78845 0.568728 2.24448 0.392308C2.58828 0.25821 3.10518 0.0998603 4.05671 0.0565875C5.08574 0.00951051 5.39483 0 7.99976 0C10.6056 0 10.9138 0.0104616 11.9433 0.0565875C12.8948 0.0998603 13.4108 0.259161 13.7555 0.392308C14.2111 0.568728 14.5359 0.780813 14.8778 1.12224C15.2197 1.46367 15.4303 1.78893 15.6077 2.24448C15.7418 2.58828 15.9001 3.10518 15.9434 4.05671C15.9905 5.08622 16 5.39436 16 8.00024C16 10.6052 15.9905 10.9143 15.9434 11.9438C15.9001 12.8953 15.7408 13.4122 15.6077 13.756C15.4303 14.2115 15.2192 14.5363 14.8778 14.8778C14.5363 15.2192 14.2111 15.4303 13.7555 15.6077C13.4117 15.7418 12.8948 15.9001 11.9433 15.9434C10.9147 15.9905 10.6056 16 7.99976 16C5.39483 16 5.08574 15.991 4.05718 15.9434Z" fill="url(#paint1_radial)"/>
<path d="M6.03333 8.03399C6.03333 6.93976 6.92014 6.05249 8.01436 6.05249C9.10859 6.05249 9.99587 6.93976 9.99587 8.03399C9.99587 9.12821 9.10859 10.0155 8.01436 10.0155C6.92014 10.0155 6.03333 9.12821 6.03333 8.03399ZM4.96216 8.03399C4.96216 9.71971 6.32863 11.0862 8.01436 11.0862C9.7001 11.0862 11.0666 9.71971 11.0666 8.03399C11.0666 6.34826 9.7001 4.9818 8.01436 4.9818C6.32863 4.9818 4.96221 6.34817 4.96221 8.03399H4.96216ZM10.4742 4.86078C10.4741 5.00186 10.5159 5.13978 10.5942 5.25711C10.6725 5.37444 10.7839 5.46591 10.9142 5.51995C11.0445 5.57399 11.1879 5.58817 11.3263 5.5607C11.4647 5.53323 11.5918 5.46535 11.6916 5.36564C11.7914 5.26592 11.8594 5.13885 11.887 5.0005C11.9145 4.86215 11.9005 4.71873 11.8465 4.58837C11.7926 4.45801 11.7012 4.34658 11.584 4.26815C11.4667 4.18973 11.3288 4.14784 11.1877 4.14779H11.1874C10.9983 4.14787 10.817 4.22301 10.6833 4.3567C10.5495 4.49038 10.4743 4.67169 10.4742 4.86078ZM5.61297 12.8723C5.03345 12.8459 4.71846 12.7494 4.50913 12.6679C4.23162 12.5598 4.03361 12.4311 3.82542 12.2232C3.61724 12.0153 3.48837 11.8175 3.38081 11.54C3.29921 11.3308 3.20268 11.0157 3.17633 10.4362C3.14752 9.80963 3.14176 9.62142 3.14176 8.03408C3.14176 6.44674 3.14799 6.25905 3.17633 5.63198C3.20273 5.05247 3.29997 4.738 3.38081 4.52816C3.48885 4.25064 3.61753 4.05263 3.82542 3.84445C4.03332 3.63627 4.23114 3.5074 4.50913 3.39984C4.71836 3.31824 5.03345 3.22171 5.61297 3.19536C6.23952 3.16655 6.42773 3.16079 8.01436 3.16079C9.601 3.16079 9.7894 3.16693 10.4165 3.19546C10.996 3.22185 11.3105 3.31909 11.5203 3.39993C11.7978 3.5075 11.9958 3.63665 12.204 3.84455C12.4122 4.05244 12.5406 4.25074 12.6486 4.52825C12.7302 4.73748 12.8268 5.05256 12.8531 5.63208C12.8819 6.25915 12.8877 6.44684 12.8877 8.03418C12.8877 9.62152 12.8819 9.8092 12.8531 10.4363C12.8267 11.0158 12.7297 11.3308 12.6486 11.5401C12.5406 11.8176 12.4119 12.0156 12.204 12.2233C11.9961 12.431 11.7978 12.5599 11.5203 12.6679C11.3111 12.7495 10.996 12.8461 10.4165 12.8724C9.78992 12.9012 9.60171 12.907 8.01436 12.907C6.42702 12.907 6.23933 12.9012 5.61297 12.8724V12.8723ZM5.56375 2.12596C4.93097 2.15478 4.49858 2.25511 4.12096 2.40205C3.73013 2.55379 3.39883 2.75736 3.06801 3.08766C2.73719 3.41796 2.53414 3.7493 2.3824 4.14061C2.23546 4.51846 2.13513 4.95061 2.10631 5.58339C2.07702 6.21716 2.07031 6.41978 2.07031 8.03399C2.07031 9.64819 2.07702 9.85081 2.10631 10.4846C2.13513 11.1174 2.23546 11.5495 2.3824 11.9274C2.53414 12.3182 2.73723 12.6502 3.06801 12.9803C3.39878 13.3105 3.72965 13.5138 4.12096 13.6659C4.49929 13.8129 4.93097 13.9132 5.56375 13.942C6.19786 13.9708 6.40015 13.978 8.01436 13.978C9.62858 13.978 9.8312 13.9713 10.465 13.942C11.0978 13.9132 11.5299 13.8129 11.9078 13.6659C12.2986 13.5138 12.6299 13.3106 12.9607 12.9803C13.2915 12.65 13.4942 12.3182 13.6463 11.9274C13.7933 11.5495 13.8941 11.1174 13.9224 10.4846C13.9512 9.85034 13.9579 9.64819 13.9579 8.03399C13.9579 6.41978 13.9512 6.21716 13.9224 5.58339C13.8936 4.95056 13.7933 4.51822 13.6463 4.14061C13.4942 3.74977 13.291 3.41848 12.9607 3.08766C12.6304 2.75684 12.2986 2.55379 11.9082 2.40205C11.5299 2.25511 11.0978 2.1543 10.4655 2.12596C9.83158 2.097 9.62905 2.08997 8.01508 2.08997C6.4011 2.08997 6.1981 2.09667 5.56399 2.12596" fill="white"/>
<defs>
<radialGradient id="paint0_radial" cx="0" cy="0" r="1" gradientUnits="userSpaceOnUse" gradientTransform="translate(1.0355 15.6495) scale(20.3141)">
<stop offset="0.09" stop-color="#FA8F21"/>
<stop offset="0.78" stop-color="#D82D7E"/>
</radialGradient>
<radialGradient id="paint1_radial" cx="0" cy="0" r="1" gradientUnits="userSpaceOnUse" gradientTransform="translate(11.0826 15.1357) scale(17.8766)">
<stop offset="0.64" stop-color="#8C3AAA" stop-opacity="0"/>
<stop offset="1" stop-color="#8C3AAA"/>
</radialGradient>
</defs>
</svg>
