<svg width="16" height="16" viewBox="0 0 16 16" fill="none" xmlns="http://www.w3.org/2000/svg">
<path d="M0 1.17352C0 0.543428 0.529625 0.0319824 1.1825 0.0319824H14.8175C15.4706 0.0319824 16 0.543428 16 1.17352V14.8266C16 15.4569 15.4706 15.968 14.8175 15.968H1.1825C0.529688 15.968 0 15.457 0 14.8268V1.17334V1.17352Z" fill="#006699"/>
<path d="M4.85959 13.3683V6.1939H2.46534V13.3683H4.85984H4.85959ZM3.66297 5.21452C4.49772 5.21452 5.01741 4.66361 5.01741 3.97512C5.00178 3.27095 4.49772 2.73541 3.67884 2.73541C2.85941 2.73541 2.32422 3.27095 2.32422 3.97506C2.32422 4.66354 2.84372 5.21446 3.64728 5.21446H3.66278L3.66297 5.21452ZM6.18484 13.3683H8.57891V9.36224C8.57891 9.1481 8.59453 8.9334 8.65778 8.78045C8.83078 8.35186 9.22472 7.9082 9.88628 7.9082C10.7524 7.9082 11.0991 8.56606 11.0991 9.53062V13.3683H13.4931V9.25473C13.4931 7.05114 12.3121 6.0257 10.7369 6.0257C9.44547 6.0257 8.87828 6.74462 8.56316 7.23428H8.57909V6.19415H6.18497C6.21622 6.86719 6.18478 13.3686 6.18478 13.3686L6.18484 13.3683Z" fill="white"/>
</svg>
