<svg width="40" height="40" viewBox="0 0 40 40" fill="none" xmlns="http://www.w3.org/2000/svg">
<path d="M20 39.9278C31.0457 39.9278 40 30.9897 40 19.9639C40 8.93814 31.0457 0 20 0C8.95431 0 0 8.93814 0 19.9639C0 30.9897 8.95431 39.9278 20 39.9278Z" fill="white"/>
<path d="M11.6059 16.4218H15.7143V29.7832H11.6059V16.4218ZM13.6622 9.7832C14.1331 9.7832 14.5934 9.92442 14.985 10.189C15.3765 10.4536 15.6817 10.8296 15.8619 11.2696C16.0421 11.7096 16.0893 12.1938 15.9974 12.6609C15.9055 13.128 15.6788 13.557 15.3458 13.8938C15.0128 14.2305 14.5886 14.4599 14.1267 14.5528C13.6648 14.6457 13.1861 14.598 12.7511 14.4157C12.316 14.2335 11.9441 13.9249 11.6825 13.5289C11.4209 13.1329 11.2812 12.6673 11.2812 12.1911C11.2812 11.5525 11.5321 10.94 11.9786 10.4884C12.4251 10.0369 13.0307 9.7832 13.6622 9.7832Z" fill="#47404F"/>
<path d="M17.9492 16.7724H22.0415V18.5514H22.1194C22.5293 17.8884 23.1216 17.343 23.8331 16.9734C24.5446 16.6039 25.3487 16.4239 26.1597 16.4527C30.4901 16.4527 31.2826 19.1458 31.2826 22.6465V29.783H27.0128V23.4581C27.0128 21.9496 26.9868 20.0066 24.7956 20.0066C22.6044 20.0066 22.232 21.6463 22.232 23.3474V29.783H17.9665L17.9492 16.7724Z" fill="#47404F"/>
</svg>
