<svg width="106" height="108" viewBox="0 0 106 108" fill="none" xmlns="http://www.w3.org/2000/svg">
<ellipse cx="53" cy="54" rx="53" ry="54" fill="#53639E"/>
<path d="M63.4153 45.6666H61.332V41.7291C61.332 39.5189 60.454 37.3993 58.8912 35.8365C57.3284 34.2737 55.2088 33.3958 52.9987 33.3958C50.7886 33.3958 48.6689 34.2737 47.1061 35.8365C45.5433 37.3993 44.6654 39.5189 44.6654 41.7291V45.6666H42.582C40.9244 45.6666 39.3347 46.3251 38.1626 47.4972C36.9905 48.6693 36.332 50.259 36.332 51.9166V68.5833C36.332 70.2409 36.9905 71.8306 38.1626 73.0027C39.3347 74.1748 40.9244 74.8333 42.582 74.8333H63.4153C65.073 74.8333 66.6627 74.1748 67.8348 73.0027C69.0069 71.8306 69.6653 70.2409 69.6653 68.5833V51.9166C69.6653 50.259 69.0069 48.6693 67.8348 47.4972C66.6627 46.3251 65.073 45.6666 63.4153 45.6666ZM48.832 41.7291C48.804 40.5943 49.2267 39.4946 50.0076 38.6707C50.7885 37.8469 51.864 37.366 52.9987 37.3333C54.1334 37.366 55.2089 37.8469 55.9898 38.6707C56.7707 39.4946 57.1934 40.5943 57.1654 41.7291V45.6666H48.832V41.7291ZM65.4987 68.5833C65.4987 69.1358 65.2792 69.6657 64.8885 70.0564C64.4978 70.4471 63.9679 70.6666 63.4153 70.6666H42.582C42.0295 70.6666 41.4996 70.4471 41.1089 70.0564C40.7182 69.6657 40.4987 69.1358 40.4987 68.5833V51.9166C40.4987 51.3641 40.7182 50.8342 41.1089 50.4435C41.4996 50.0527 42.0295 49.8333 42.582 49.8333H63.4153C63.9679 49.8333 64.4978 50.0527 64.8885 50.4435C65.2792 50.8342 65.4987 51.3641 65.4987 51.9166V68.5833Z" fill="#FFC107"/>
<path d="M53 54C51.7639 54 50.5555 54.3666 49.5277 55.0533C48.4999 55.7401 47.6988 56.7162 47.2258 57.8582C46.7527 59.0003 46.6289 60.2569 46.8701 61.4693C47.1113 62.6817 47.7065 63.7953 48.5806 64.6694C49.4547 65.5435 50.5683 66.1388 51.7807 66.3799C52.9931 66.6211 54.2497 66.4973 55.3918 66.0242C56.5338 65.5512 57.5099 64.7501 58.1967 63.7223C58.8834 62.6945 59.25 61.4861 59.25 60.25C59.25 58.5924 58.5915 57.0027 57.4194 55.8306C56.2473 54.6585 54.6576 54 53 54ZM53 62.3333C52.588 62.3333 52.1852 62.2111 51.8426 61.9822C51.5 61.7533 51.2329 61.4279 51.0753 61.0473C50.9176 60.6666 50.8763 60.2477 50.9567 59.8436C51.0371 59.4394 51.2355 59.0682 51.5269 58.7769C51.8182 58.4855 52.1894 58.2871 52.5936 58.2067C52.9977 58.1263 53.4166 58.1676 53.7973 58.3253C54.1779 58.4829 54.5033 58.75 54.7322 59.0926C54.9612 59.4352 55.0833 59.838 55.0833 60.25C55.0833 60.8025 54.8638 61.3324 54.4731 61.7231C54.0824 62.1138 53.5525 62.3333 53 62.3333Z" fill="#FFC107"/>
</svg>
