<svg width="229" height="55" viewBox="0 0 229 55" fill="none" xmlns="http://www.w3.org/2000/svg">
<path d="M24.156 6.88672V21.2936C24.156 24.3153 22.9693 27.2237 20.8259 29.3615C20.8121 29.3753 20.801 29.3864 20.7871 29.4002L10.6861 39.4264C7.40595 42.6829 3.89014 45.6963 0.166364 48.4445L0 48.5661L21.0117 12.3141L24.156 6.88672Z" fill="white"/>
<path d="M49.1911 48.5661L49.0248 48.4418C45.3038 45.6935 41.788 42.6801 38.5051 39.4237L28.404 29.3974C28.3902 29.3836 28.3791 29.3726 28.3652 29.3588C26.2219 27.2209 25.0352 24.3125 25.0352 21.2908V6.88672L28.1794 12.3141L49.1911 48.5661Z" fill="white"/>
<path d="M24.1547 38.2584V43.8515C24.1547 44.3956 23.7609 44.8624 23.223 44.9563L0.941406 48.8287C5.35281 45.5723 20.9744 37.2336 20.9744 37.2336C21.3459 37.0486 21.7285 36.8939 22.1195 36.7724C23.1288 36.4603 24.1547 37.206 24.1547 38.2584Z" fill="white"/>
<path d="M48.2484 48.8284L25.9668 44.956C25.4289 44.8621 25.0352 44.3953 25.0352 43.8512V38.2608C25.0352 37.2085 26.0611 36.4627 27.0703 36.7748C27.4613 36.8963 27.8439 37.0483 28.2127 37.2361C28.2127 37.2333 43.837 45.5719 48.2484 48.8284Z" fill="white"/>
<path d="M68.8727 18.8276C72.562 18.8276 75.3954 19.713 77.3729 21.4839C79.3504 23.2252 80.3391 25.8668 80.3391 29.4085V43H73.8754V40.0338C72.5768 42.2474 70.1566 43.3542 66.6148 43.3542C64.7849 43.3542 63.1911 43.0443 61.8335 42.4245C60.5053 41.8047 59.4871 40.9487 58.7787 39.8567C58.0704 38.7647 57.7162 37.525 57.7162 36.1379C57.7162 33.9243 58.5426 32.1829 60.1954 30.9138C61.8777 29.6447 64.4603 29.0101 67.943 29.0101H73.4327C73.4327 27.5049 72.9752 26.3538 72.0603 25.5569C71.1453 24.7305 69.7729 24.3173 67.943 24.3173C66.6739 24.3173 65.4195 24.5239 64.1799 24.9371C62.9698 25.3208 61.9368 25.852 61.0808 26.5309L58.6016 21.7052C59.9003 20.7903 61.4498 20.0819 63.2502 19.5802C65.0801 19.0784 66.9542 18.8276 68.8727 18.8276ZM68.3414 38.7056C69.522 38.7056 70.5698 38.44 71.4847 37.9087C72.3997 37.348 73.049 36.5363 73.4327 35.4738V33.0388H68.6956C65.8622 33.0388 64.4455 33.9685 64.4455 35.828C64.4455 36.7134 64.7849 37.4217 65.4638 37.953C66.1721 38.4548 67.1313 38.7056 68.3414 38.7056ZM101.952 41.8489C101.273 42.3507 100.432 42.7344 99.4286 43C98.4546 43.2361 97.4216 43.3542 96.3295 43.3542C93.4961 43.3542 91.2973 42.6311 89.733 41.1849C88.1983 39.7386 87.4309 37.6136 87.4309 34.8097V25.0256H83.7563V19.713H87.4309V13.9134H94.3373V19.713H100.27V25.0256H94.3373V34.7212C94.3373 35.7247 94.5882 36.5068 95.0899 37.0676C95.6212 37.5988 96.359 37.8645 97.3035 37.8645C98.3956 37.8645 99.3253 37.5693 100.093 36.979L101.952 41.8489ZM129.824 19.1817V43H123.272V40.1666C122.357 41.1996 121.265 41.9965 119.996 42.5573C118.727 43.0885 117.354 43.3542 115.879 43.3542C112.75 43.3542 110.271 42.454 108.441 40.6536C106.611 38.8532 105.696 36.1821 105.696 32.6404V19.1817H112.603V31.6221C112.603 35.459 114.211 37.3775 117.428 37.3775C119.081 37.3775 120.409 36.8462 121.413 35.7837C122.416 34.6916 122.918 33.0831 122.918 30.9581V19.1817H129.824ZM136.223 10.1503H143.129V43H136.223V10.1503ZM159.146 18.8276C162.835 18.8276 165.668 19.713 167.646 21.4839C169.623 23.2252 170.612 25.8668 170.612 29.4085V43H164.148V40.0338C162.85 42.2474 160.43 43.3542 156.888 43.3542C155.058 43.3542 153.464 43.0443 152.107 42.4245C150.778 41.8047 149.76 40.9487 149.052 39.8567C148.343 38.7647 147.989 37.525 147.989 36.1379C147.989 33.9243 148.816 32.1829 150.468 30.9138C152.151 29.6447 154.733 29.0101 158.216 29.0101H163.706C163.706 27.5049 163.248 26.3538 162.333 25.5569C161.418 24.7305 160.046 24.3173 158.216 24.3173C156.947 24.3173 155.693 24.5239 154.453 24.9371C153.243 25.3208 152.21 25.852 151.354 26.5309L148.875 21.7052C150.173 20.7903 151.723 20.0819 153.523 19.5802C155.353 19.0784 157.227 18.8276 159.146 18.8276ZM158.614 38.7056C159.795 38.7056 160.843 38.44 161.758 37.9087C162.673 37.348 163.322 36.5363 163.706 35.4738V33.0388H158.969C156.135 33.0388 154.719 33.9685 154.719 35.828C154.719 36.7134 155.058 37.4217 155.737 37.953C156.445 38.4548 157.404 38.7056 158.614 38.7056ZM200.453 31.1794C200.453 31.268 200.409 31.8878 200.321 33.0388H182.302C182.627 34.5146 183.394 35.6804 184.604 36.5363C185.814 37.3922 187.319 37.8202 189.12 37.8202C190.359 37.8202 191.452 37.6431 192.396 37.2889C193.37 36.9052 194.27 36.315 195.097 35.5181L198.771 39.5025C196.528 42.0703 193.252 43.3542 188.943 43.3542C186.257 43.3542 183.881 42.8377 181.815 41.8047C179.749 40.7421 178.155 39.2812 177.034 37.4217C175.912 35.5623 175.351 33.452 175.351 31.0909C175.351 28.7592 175.897 26.6637 176.989 24.8043C178.111 22.9153 179.631 21.4544 181.549 20.4214C183.497 19.3588 185.667 18.8276 188.057 18.8276C190.389 18.8276 192.499 19.3293 194.388 20.3328C196.277 21.3363 197.753 22.7825 198.815 24.6715C199.907 26.5309 200.453 28.7002 200.453 31.1794ZM188.102 24.0516C186.537 24.0516 185.224 24.4944 184.161 25.3798C183.099 26.2652 182.45 27.4753 182.213 29.0101H193.945C193.709 27.5049 193.06 26.3095 191.998 25.4241C190.935 24.5091 189.636 24.0516 188.102 24.0516ZM228.26 19.1817L217.502 44.461C216.41 47.2058 215.053 49.139 213.429 50.2606C211.835 51.3821 209.902 51.9429 207.63 51.9429C206.39 51.9429 205.165 51.7511 203.955 51.3674C202.745 50.9837 201.756 50.4524 200.989 49.7736L203.512 44.8594C204.044 45.3317 204.649 45.7006 205.328 45.9662C206.036 46.2318 206.729 46.3647 207.408 46.3647C208.353 46.3647 209.12 46.1285 209.71 45.6563C210.301 45.2136 210.832 44.461 211.304 43.3984L211.393 43.1771L201.077 19.1817H208.205L214.89 35.341L221.62 19.1817H228.26Z" fill="white"/>
</svg>
