<svg width="90" height="63" viewBox="0 0 90 63" fill="none" xmlns="http://www.w3.org/2000/svg">
<path d="M43.8337 22.9107C43.8321 16.833 41.5281 11.0048 37.4285 6.70828C33.3289 2.41174 27.7695 -0.00128911 21.9732 5.16661e-07C9.9023 5.16661e-07 1.14047 9.90685 0.118852 22.5266C-1.43754 41.7618 12.505 57.874 29.4321 63C26.512 61.1547 24.0444 58.6182 22.2269 55.5936C20.4094 52.5689 19.2925 49.1401 18.9655 45.5816C19.9612 45.7389 20.9663 45.8229 21.9732 45.8328C24.8442 45.8336 27.6872 45.2413 30.3398 44.0897C32.9924 42.938 35.4026 41.2496 37.4327 39.121C39.4628 36.9923 41.073 34.465 42.1713 31.6836C43.2696 28.9022 43.8345 25.9211 43.8337 22.9107Z" fill="#45A247"/>
<path d="M89.9991 22.9107C89.9978 16.8337 87.6946 11.006 83.5959 6.70952C79.4972 2.41303 73.9388 -0.000429855 68.1432 5.74258e-08C56.0738 5.74258e-08 47.3105 9.90685 46.2873 22.5266C44.7278 41.7618 58.6688 57.874 75.6036 63C72.6835 61.1547 70.2159 58.6182 68.3984 55.5936C66.5809 52.5689 65.464 49.1401 65.137 45.5816C66.1343 45.7391 67.1409 45.823 68.1494 45.8328C71.0195 45.8323 73.8614 45.2391 76.5129 44.0868C79.1643 42.9346 81.5734 41.246 83.6024 39.1174C85.6313 36.9888 87.2406 34.462 88.3381 31.6812C89.4357 28.9005 90.0001 25.9202 89.9991 22.9107Z" fill="#45A247"/>
</svg>
