<svg width="24" height="24" viewBox="0 0 24 24" fill="none" xmlns="http://www.w3.org/2000/svg">
<path d="M9.86106 17.9999C9.72395 17.9995 9.58838 17.9708 9.4628 17.9158C9.33722 17.8607 9.2243 17.7804 9.13106 17.6799L4.27106 12.5099C4.08939 12.3163 3.99207 12.0585 4.00051 11.7931C4.00895 11.5277 4.12245 11.2766 4.31606 11.0949C4.50967 10.9132 4.76752 10.8159 5.03288 10.8244C5.29825 10.8328 5.54939 10.9463 5.73106 11.1399L9.85106 15.5299L18.2611 6.32991C18.3464 6.22363 18.4526 6.13593 18.5731 6.07217C18.6935 6.00842 18.8258 5.96997 18.9617 5.95919C19.0975 5.94841 19.2342 5.96551 19.3632 6.00946C19.4922 6.05341 19.6109 6.12327 19.7119 6.21476C19.813 6.30624 19.8943 6.41742 19.9508 6.54145C20.0073 6.66549 20.0378 6.79977 20.0406 6.93605C20.0433 7.07233 20.0181 7.20772 19.9666 7.33392C19.9151 7.46012 19.8384 7.57446 19.7411 7.66991L10.6011 17.6699C10.5087 17.7723 10.3962 17.8544 10.2706 17.9112C10.1449 17.968 10.0089 17.9982 9.87106 17.9999H9.86106Z" fill="#F8D90F"/>
</svg>
